<?xml version="1.0" standalone="no"?>
<!DOCTYPE svg PUBLIC "-//W3C//DTD SVG 20010904//EN"
 "http://www.w3.org/TR/2001/REC-SVG-20010904/DTD/svg10.dtd">
<svg version="1.0" xmlns="http://www.w3.org/2000/svg"
 width="256.000000pt" height="256.000000pt" viewBox="0 0 256.000000 256.000000"
 preserveAspectRatio="xMidYMid meet">
<metadata>
Created by potrace 1.11, written by Peter Selinger 2001-2013
</metadata>
<g transform="translate(0.000000,256.000000) scale(0.100000,-0.100000)"
fill="#000000" stroke="none">
<path d="M558 2033 c-7 -9 -13 -45 -14 -82 -1 -36 -2 -71 -3 -77 -1 -5 -15 -9
-32 -8 -45 3 -65 -22 -64 -79 2 -51 2 -50 -69 -62 -72 -12 -166 -65 -230 -129
-102 -102 -154 -239 -143 -375 8 -89 12 -103 46 -177 64 -136 204 -243 353
-269 18 -4 35 -10 38 -15 3 -6 5 -54 5 -107 -1 -66 3 -105 11 -120 l14 -22
459 2 c253 1 463 6 467 10 5 5 9 53 10 107 l1 98 414 415 c375 375 419 416
459 427 25 6 59 16 76 21 17 5 40 11 52 14 124 23 166 51 143 92 -20 35 -329
334 -349 338 -11 2 -25 -2 -31 -9 -6 -7 -28 -79 -50 -161 l-41 -150 -337 -337
-338 -338 0 397 c0 375 -1 399 -18 416 -12 12 -28 17 -43 14 -33 -6 -36 3 -38
90 -1 49 -6 77 -15 82 -7 5 -172 8 -367 9 -302 0 -355 -3 -366 -15z m663 -72
c6 -45 6 -77 -1 -86 -5 -6 -108 -9 -292 -8 -155 1 -288 2 -294 2 -9 1 -11 44
-5 92 1 7 591 7 592 0z m-776 -712 l1 -399 -36 6 c-19 3 -60 18 -90 32 l-55
27 0 333 c0 184 2 337 5 342 15 23 156 75 170 63 3 -3 5 -184 5 -404z m1698
363 c15 -17 -6 -40 -361 -395 l-378 -378 0 42 c1 41 4 45 355 395 194 195 357
354 361 354 4 0 14 -8 23 -18z m-1959 -345 c-1 -138 -2 -259 -3 -267 0 -8 -13
3 -28 25 -84 123 -92 284 -22 420 17 31 47 75 53 75 1 0 0 -114 0 -253z m989
81 c7 -21 -4 -38 -23 -38 -17 0 -34 33 -22 44 10 11 40 6 45 -6z m-350 -252
c6 -15 -11 -36 -29 -36 -14 0 -27 28 -18 41 8 14 41 11 47 -5z m346 -213 c-17
-19 -36 -16 -42 7 -7 28 23 45 40 23 9 -12 10 -20 2 -30z"/>
</g>
</svg>
